<?xml version="1.0" standalone="no"?>
<!DOCTYPE svg PUBLIC "-//W3C//DTD SVG 20010904//EN"
 "http://www.w3.org/TR/2001/REC-SVG-20010904/DTD/svg10.dtd">
<svg version="1.0" xmlns="http://www.w3.org/2000/svg"
 width="600.000000pt" height="600.000000pt" viewBox="0 0 600.000000 600.000000"
 preserveAspectRatio="xMidYMid meet">
<metadata>
Created by potrace 1.11, written by Peter Selinger 2001-2013
</metadata>
<g transform="translate(0.000000,600.000000) scale(0.100000,-0.100000)"
fill="#000000" stroke="none">
<path d="M2560 5224 c-239 -139 -448 -260 -465 -269 -16 -9 -68 -38 -114 -65
-46 -28 -87 -50 -92 -50 -4 0 -9 -3 -11 -7 -1 -5 -20 -17 -40 -28 -37 -19
-367 -210 -733 -423 -99 -58 -193 -112 -210 -122 l-30 -17 0 -1243 0 -1242
275 -160 c151 -88 293 -170 315 -182 22 -13 198 -114 390 -226 193 -111 366
-212 385 -222 19 -11 91 -53 160 -93 593 -345 611 -355 633 -343 12 6 108 61
212 121 105 61 204 118 220 127 32 18 591 342 1280 741 l410 237 0 1242 0
1242 -95 55 c-52 30 -113 65 -135 78 -22 12 -123 71 -225 130 -208 121 -611
354 -680 393 -25 14 -78 45 -118 69 -41 24 -78 43 -83 43 -5 0 -9 5 -9 10 0 6
-4 10 -9 10 -5 0 -159 87 -343 193 -393 228 -444 257 -449 256 -2 -1 -200
-115 -439 -255z m667 -30 c120 -69 234 -135 253 -146 19 -12 54 -31 77 -44 23
-13 108 -63 190 -110 81 -48 254 -147 383 -222 129 -74 278 -160 330 -191 52
-31 182 -106 287 -166 106 -61 193 -112 193 -115 -1 -4 -202 -122 -369 -215
-20 -11 -79 -45 -131 -76 -52 -31 -288 -168 -525 -304 -236 -137 -537 -311
-668 -387 -131 -76 -240 -138 -242 -138 -1 0 -128 72 -281 161 -154 89 -398
230 -544 314 -503 290 -705 408 -735 426 -16 10 -39 23 -50 29 -11 5 -45 24
-76 42 -30 18 -99 58 -152 88 -53 30 -97 57 -97 60 0 3 20 17 45 30 24 14 143
82 262 151 178 104 629 365 758 439 17 10 57 33 90 52 63 37 232 134 300 173
22 13 137 80 255 149 118 69 218 125 222 125 3 1 105 -56 225 -125z m-2158
-1153 c63 -37 608 -352 680 -393 32 -18 267 -154 411 -238 122 -71 635 -368
685 -396 28 -16 60 -34 70 -41 20 -11 20 -29 20 -1132 1 -617 -1 -1121 -2
-1121 -2 0 -249 142 -551 317 -301 174 -560 324 -577 333 -16 10 -70 41 -120
70 -49 29 -106 61 -125 72 -19 11 -93 54 -165 96 -71 41 -188 109 -260 150
-71 41 -132 76 -135 79 -6 6 -7 2243 -1 2243 3 0 34 -18 70 -39z m3943 -1085
c0 -614 -2 -1119 -4 -1120 -5 -4 -1162 -673 -1343 -776 -60 -35 -341 -198
-375 -219 -19 -11 -42 -24 -50 -28 -8 -4 -48 -26 -88 -50 -40 -24 -74 -43 -77
-43 -2 0 -3 505 -2 1121 l2 1122 360 208 c198 115 371 215 385 223 14 7 194
111 400 231 206 120 390 226 408 236 18 11 66 38 105 61 40 22 111 63 159 90
48 27 91 54 94 59 3 6 10 9 16 7 7 -3 10 -374 10 -1122z"/>
<path d="M1288 3263 c-34 -22 -49 -49 -53 -102 -14 -192 205 -420 318 -331
118 93 -30 417 -203 444 -23 3 -44 -1 -62 -11z"/>
<path d="M1725 2724 c-32 -32 -31 -192 1 -284 58 -167 229 -320 372 -335 46
-4 55 -2 83 23 50 45 66 142 44 273 -12 73 -87 133 -122 98 -6 -6 -9 -43 -5
-98 4 -80 3 -90 -16 -109 -23 -23 -43 -22 -95 2 -52 25 -106 75 -128 118 -22
42 -31 126 -19 169 21 71 -71 186 -115 143z"/>
<path d="M1246 2629 c-19 -28 -12 -61 29 -134 103 -186 317 -435 485 -566 30
-24 57 -46 60 -49 3 -3 41 -29 85 -57 200 -127 391 -183 570 -168 90 7 203 42
218 66 16 25 -1 85 -33 119 -33 36 -46 36 -150 5 -77 -23 -218 -23 -310 -1
-287 70 -616 346 -822 690 -40 67 -62 93 -85 103 -29 11 -33 11 -47 -8z"/>
<path d="M2402 2625 c-154 -66 14 -455 197 -455 78 0 120 84 96 190 -38 167
-193 307 -293 265z"/>
</g>
</svg>
